HIERARCHY
ROOT Hips
{
	OFFSET 0.000000 89.005402 0.000000
	CHANNELS 6 Xposition Yposition Zposition Xrotation Yrotation Zrotation
	JOINT Spine
	{
		OFFSET 0.116900 10.681000 0.373400
		CHANNELS 3 Xrotation Yrotation Zrotation
		JOINT Spine1
		{
			OFFSET 0.000000 13.840401 0.053500
			CHANNELS 3 Xrotation Yrotation Zrotation
			JOINT Spine2
			{
				OFFSET 0.000000 14.712700 -0.366200
				CHANNELS 3 Xrotation Yrotation Zrotation
				JOINT Neck
				{
					OFFSET 0.000000 35.415497 -3.314200
					CHANNELS 3 Xrotation Yrotation Zrotation
					JOINT Head
					{
						OFFSET 0.000000 16.899200 1.218300
						CHANNELS 3 Xrotation Yrotation Zrotation
						JOINT HeadTop_End
						{
							OFFSET 0.000000 22.206207 2.192500
							CHANNELS 3 Xrotation Yrotation Zrotation
							End Site
							{
								OFFSET 0.000000 22.314178 0.000000
							}
						}
					}
				}
				JOINT LeftShoulder
				{
					OFFSET 12.896400 26.716293 -4.548400
					CHANNELS 3 Xrotation Yrotation Zrotation
					JOINT LeftArm
					{
						OFFSET 19.027000 -4.857010 -1.718400
						CHANNELS 3 Xrotation Yrotation Zrotation
						JOINT LeftForeArm
						{
							OFFSET 24.179897 0.000000 0.000000
							CHANNELS 3 Xrotation Yrotation Zrotation
							JOINT LeftHand
							{
								OFFSET 27.156403 0.000000 0.000000
								CHANNELS 3 Xrotation Yrotation Zrotation
								JOINT LeftHandIndex1
								{
									OFFSET 16.441200 0.000000 0.000000
									CHANNELS 3 Xrotation Yrotation Zrotation
									JOINT LeftHandIndex2
									{
										OFFSET 4.821899 0.000000 0.000000
										CHANNELS 3 Xrotation Yrotation Zrotation
										JOINT LeftHandIndex3
										{
											OFFSET 6.386497 0.000000 0.000000
											CHANNELS 3 Xrotation Yrotation Zrotation
											JOINT LeftHandIndex4
											{
												OFFSET 5.188988 0.000000 0.000000
												CHANNELS 3 Xrotation Yrotation Zrotation
												End Site
												{
													OFFSET -0.178703 5.185913 0.000177
												}
											}
										}
									}
								}
								JOINT LeftHandThumb1
								{
									OFFSET 6.534897 -5.032593 5.900300
									CHANNELS 3 Xrotation Yrotation Zrotation
									JOINT LeftHandThumb2
									{
										OFFSET 3.818176 -2.204422 2.204423
										CHANNELS 3 Xrotation Yrotation Zrotation
										JOINT LeftHandThumb3
										{
											OFFSET 3.252098 -1.877594 1.877601
											CHANNELS 3 Xrotation Yrotation Zrotation
											JOINT LeftHandThumb4
											{
												OFFSET 5.251778 -3.032120 3.032117
												CHANNELS 3 Xrotation Yrotation Zrotation
												End Site
												{
													OFFSET 0.000023 6.780014 0.000000
												}
											}
										}
									}
								}
							}
						}
					}
				}
				JOINT RightShoulder
				{
					OFFSET -12.896300 26.716293 -4.548400
					CHANNELS 3 Xrotation Yrotation Zrotation
					JOINT RightArm
					{
						OFFSET -19.027000 -4.857010 -1.718400
						CHANNELS 3 Xrotation Yrotation Zrotation
						JOINT RightForeArm
						{
							OFFSET -24.179897 0.000000 0.000000
							CHANNELS 3 Xrotation Yrotation Zrotation
							JOINT RightHand
							{
								OFFSET -27.156403 0.000000 0.000000
								CHANNELS 3 Xrotation Yrotation Zrotation
								JOINT RightHandThumb1
								{
									OFFSET -6.591202 -4.852203 5.988100
									CHANNELS 3 Xrotation Yrotation Zrotation
									JOINT RightHandThumb2
									{
										OFFSET -3.818176 -2.204422 2.204423
										CHANNELS 3 Xrotation Yrotation Zrotation
										JOINT RightHandThumb3
										{
											OFFSET -3.252098 -1.877594 1.877601
											CHANNELS 3 Xrotation Yrotation Zrotation
											JOINT RightHandThumb4
											{
												OFFSET -5.251778 -3.032120 3.032117
												CHANNELS 3 Xrotation Yrotation Zrotation
												End Site
												{
													OFFSET -0.000023 6.780014 0.000000
												}
											}
										}
									}
								}
								JOINT RightHandIndex1
								{
									OFFSET -16.029404 0.000000 0.000000
									CHANNELS 3 Xrotation Yrotation Zrotation
									JOINT RightHandIndex2
									{
										OFFSET -5.213303 0.000000 0.000000
										CHANNELS 3 Xrotation Yrotation Zrotation
										JOINT RightHandIndex3
										{
											OFFSET -6.386528 0.000000 0.000000
											CHANNELS 3 Xrotation Yrotation Zrotation
											JOINT RightHandIndex4
											{
												OFFSET -5.189026 0.000000 0.000000
												CHANNELS 3 Xrotation Yrotation Zrotation
												End Site
												{
													OFFSET 0.236702 5.183624 0.001972
												}
											}
										}
									}
								}
							}
						}
					}
				}
			}
		}
	}
	JOINT LeftUpLeg
	{
		OFFSET 14.073000 -7.904099 -1.463000
		CHANNELS 3 Xrotation Yrotation Zrotation
		JOINT LeftLeg
		{
			OFFSET -0.109806 -34.073280 4.093200
			CHANNELS 3 Xrotation Yrotation Zrotation
			JOINT LeftFoot
			{
				OFFSET 0.109806 -29.899420 -6.319000
				CHANNELS 3 Xrotation Yrotation Zrotation
				JOINT LeftToeBase
				{
					OFFSET 1.551100 -14.988700 20.535801
					CHANNELS 3 Xrotation Yrotation Zrotation
					JOINT LeftToe_End
					{
						OFFSET 0.221200 0.570800 13.248301
						CHANNELS 3 Xrotation Yrotation Zrotation
						End Site
						{
							OFFSET 0.000000 13.262435 0.000000
						}
					}
				}
			}
		}
	}
	JOINT RightUpLeg
	{
		OFFSET -13.839300 -7.904099 -1.463000
		CHANNELS 3 Xrotation Yrotation Zrotation
		JOINT RightLeg
		{
			OFFSET 0.109694 -34.073219 4.093300
			CHANNELS 3 Xrotation Yrotation Zrotation
			JOINT RightFoot
			{
				OFFSET -0.109694 -29.899384 -6.319200
				CHANNELS 3 Xrotation Yrotation Zrotation
				JOINT RightToeBase
				{
					OFFSET -1.551100 -14.988700 20.535801
					CHANNELS 3 Xrotation Yrotation Zrotation
					JOINT RightToe_End
					{
						OFFSET -0.221200 0.570900 13.248299
						CHANNELS 3 Xrotation Yrotation Zrotation
						End Site
						{
							OFFSET 0.000000 13.262440 0.000000
						}
					}
				}
			}
		}
	}
}
MOTION
Frames: 5
Frame Time: 0.033333
5.659933 58.431831 176.214355 47.196594 28.311301 -26.689611 23.091679 3.223563 1.626594 14.631971 0.271931 -0.116316 13.918676 0.196852 -0.097712 -18.089467 -6.270136 -1.287326 -67.538761 -37.932695 -5.481211 0.000000 -0.000000 0.000000 0.197804 -10.034122 -16.012448 3.268165 -15.877202 -37.654935 0.000012 -25.987635 0.000016 -24.665801 -16.857257 -16.803310 2.184447 -10.355526 2.710301 0.195074 1.500662 -14.811752 0.025224 0.543662 -5.313028 -0.000003 -0.000001 -0.000002 -16.063847 -0.644386 -1.721622 4.401067 20.298412 -9.586124 -17.892533 -22.034634 5.837302 0.000003 0.000001 0.000001 -1.145425 26.786212 18.015379 -72.834351 18.895841 9.595478 -0.000015 61.427088 0.000010 52.427829 25.749187 -48.791975 -13.883077 -3.695133 13.911965 7.375307 -23.020804 -2.783699 -3.459231 -24.954475 -18.671231 -0.000001 -0.000000 0.000001 0.078017 -1.754125 -6.493648 0.027748 -0.508184 6.250804 0.018226 -0.412080 5.065104 -0.000001 -0.000005 -0.000001 -87.426264 -28.917044 13.064601 109.136922 2.683595 0.005103 -3.910368 1.676453 -13.055492 -21.338332 13.685315 -31.697200 0.000001 -0.000000 -0.000000 -104.965541 -11.365610 -4.294140 86.259572 -5.418848 0.105773 -23.306007 0.022924 -6.681961 -0.280674 0.000005 0.000001 0.000000 -0.000002 -0.000000 
5.598286 58.903397 182.409561 46.966539 26.688431 -24.367120 23.207649 3.208022 0.180637 14.583806 0.236391 -0.243190 13.870933 0.188590 -0.204386 -17.506550 -6.197893 -1.534084 -68.378144 -37.220549 -5.527684 -0.000000 0.000000 -0.000000 0.108261 -9.821843 -17.653522 1.959047 -15.421790 -37.231119 -0.000009 -24.925988 0.000008 -25.391474 -17.263404 -18.256186 2.184446 -10.355525 2.710302 0.195076 1.500663 -14.811754 0.025225 0.543661 -5.313030 0.000002 0.000001 0.000001 -16.063850 -0.644384 -1.721620 4.401064 20.298416 -9.586123 -17.892529 -22.034631 5.837307 -0.000000 -0.000001 0.000000 -0.973642 27.265861 16.986684 -74.714012 18.754122 10.514210 0.000053 62.955684 -0.000059 52.612735 25.964549 -48.469208 -13.883077 -3.695136 13.911962 7.375307 -23.020799 -2.783699 -3.459231 -24.954477 -18.671231 0.000000 -0.000001 0.000001 0.078018 -1.754128 -6.493649 0.027747 -0.508182 6.250805 0.018226 -0.412072 5.065104 -0.000001 -0.000002 0.000000 -102.426254 -21.187406 5.424100 108.704079 7.529369 0.400931 -8.225745 1.283409 -8.173564 -15.443932 6.066904 -21.202712 0.000001 0.000000 0.000000 -98.525971 -14.316821 0.601877 87.578086 -6.855788 -0.215555 -31.597415 1.554524 -9.651214 -0.240573 -0.000007 -0.000001 -0.000000 -0.000002 0.000000 
5.795292 59.184662 188.543411 46.128629 24.595658 -22.009883 23.214438 3.229509 -0.808890 14.477744 0.203044 -0.237792 13.764992 0.192739 -0.187586 -17.188092 -5.950723 -2.404488 -68.540778 -36.506248 -5.150882 -0.000000 -0.000000 -0.000000 0.066483 -9.146965 -19.764057 1.261268 -15.435336 -36.554175 0.000004 -23.998599 -0.000016 -25.793538 -17.387930 -19.681175 2.184446 -10.355528 2.710305 0.195076 1.500665 -14.811755 0.025223 0.543664 -5.313033 0.000002 0.000001 0.000003 -16.063843 -0.644389 -1.721621 4.401062 20.298417 -9.586124 -17.892534 -22.034636 5.837310 0.000000 0.000001 0.000001 -0.715733 27.983036 15.610478 -76.005737 18.207920 11.287163 -0.000004 64.894775 -0.000009 53.816146 26.207298 -48.093817 -13.883076 -3.695139 13.911966 7.375307 -23.020803 -2.783698 -3.459232 -24.954477 -18.671232 -0.000000 -0.000000 0.000000 0.078017 -1.754128 -6.493647 0.027748 -0.508190 6.250807 0.018226 -0.412076 5.065103 0.000000 -0.000000 0.000000 -112.877912 -12.593935 0.796050 101.243949 6.133803 0.422806 -5.080587 0.429919 -4.397315 -11.499418 2.193832 -13.153071 0.000002 0.000002 -0.000000 -90.629541 -16.793844 5.468167 87.842585 -7.687416 -0.459279 -38.806136 3.304587 -12.190937 -0.814202 -0.000012 -0.000004 -0.000000 -0.000002 -0.000000 
5.795292 59.184662 188.543411 46.128629 24.595658 -22.009883 23.214438 3.229509 -0.808890 14.477744 0.203044 -0.237792 13.764992 0.192739 -0.187586 -17.188092 -5.950723 -2.404488 -68.540778 -36.506248 -5.150882 -0.000000 -0.000000 -0.000000 0.066483 -9.146965 -19.764057 1.261268 -15.435336 -36.554175 0.000004 -23.998599 -0.000016 -25.793538 -17.387930 -19.681175 2.184446 -10.355528 2.710305 0.195076 1.500665 -14.811755 0.025223 0.543664 -5.313033 0.000002 0.000001 0.000003 -16.063843 -0.644389 -1.721621 4.401062 20.298417 -9.586124 -17.892534 -22.034636 5.837310 0.000000 0.000001 0.000001 -0.715733 27.983036 15.610478 -76.005737 18.207920 11.287163 -0.000004 64.894775 -0.000009 53.816146 26.207298 -48.093817 -13.883076 -3.695139 13.911966 7.375307 -23.020803 -2.783698 -3.459232 -24.954477 -18.671232 -0.000000 -0.000000 0.000000 0.078017 -1.754128 -6.493647 0.027748 -0.508190 6.250807 0.018226 -0.412076 5.065103 0.000000 -0.000000 0.000000 -112.877912 -12.593935 0.796050 101.243949 6.133803 0.422806 -5.080587 0.429919 -4.397315 -11.499418 2.193832 -13.153071 0.000002 0.000002 -0.000000 -90.629541 -16.793844 5.468167 87.842585 -7.687416 -0.459279 -38.806136 3.304587 -12.190937 -0.814202 -0.000012 -0.000004 -0.000000 -0.000002 -0.000000 
5.795292 59.184662 188.543411 46.128629 24.595658 -22.009883 23.214438 3.229509 -0.808890 14.477744 0.203044 -0.237792 13.764992 0.192739 -0.187586 -17.188092 -5.950723 -2.404488 -68.540778 -36.506248 -5.150882 -0.000000 -0.000000 -0.000000 0.066483 -9.146965 -19.764057 1.261268 -15.435336 -36.554175 0.000004 -23.998599 -0.000016 -25.793538 -17.387930 -19.681175 2.184446 -10.355528 2.710305 0.195076 1.500665 -14.811755 0.025223 0.543664 -5.313033 0.000002 0.000001 0.000003 -16.063843 -0.644389 -1.721621 4.401062 20.298417 -9.586124 -17.892534 -22.034636 5.837310 0.000000 0.000001 0.000001 -0.715733 27.983036 15.610478 -76.005737 18.207920 11.287163 -0.000004 64.894775 -0.000009 53.816146 26.207298 -48.093817 -13.883076 -3.695139 13.911966 7.375307 -23.020803 -2.783698 -3.459232 -24.954477 -18.671232 -0.000000 -0.000000 0.000000 0.078017 -1.754128 -6.493647 0.027748 -0.508190 6.250807 0.018226 -0.412076 5.065103 0.000000 -0.000000 0.000000 -112.877912 -12.593935 0.796050 101.243949 6.133803 0.422806 -5.080587 0.429919 -4.397315 -11.499418 2.193832 -13.153071 0.000002 0.000002 -0.000000 -90.629541 -16.793844 5.468167 87.842585 -7.687416 -0.459279 -38.806136 3.304587 -12.190937 -0.814202 -0.000012 -0.000004 -0.000000 -0.000002 -0.000000 
